<svg version="1.2" xmlns="http://www.w3.org/2000/svg" viewBox="0 0 1556 372" width="1556" height="372">
	<title>nunrnn-svg</title>
	<style>
		.s0 { fill: #0e2c4f }
	</style>
	<path id="Layer" fillRule="evenodd" className="s0" d="m843.7 185.2h-19.5c-1.6 0-3.2-1.7-3.2-3.3v-109c-0.8-2.4 0.8-3.3 2.4-3.3h2.5c0.8 0 2.4 0.9 3.2 1.7l63.4 61.4v-58.1c0-1.7 1.6-3.3 3.3-3.3h19.5c1.6 0 3.2 1.6 3.2 3.3v109.8c0 1.6-1.6 3.2-3.2 3.2h-1.7c-1.6 0-2.4-0.8-3.2-1.6l-63.4-64.7v60.6c0 1.6-1.6 3.3-3.3 3.3zm-77.2 86.8c0 12.3 9.8 23 22 23 5.6 0 10.5-2.5 14.6-5.8q1.2-1.2 2.4 0l5.7 6.6q1.3 1.2 0 2.5c-6.5 6.5-14.6 9.8-23.5 9.8-19.6 0-35-15.6-35-35.3 0-19.6 15.4-36 35-36 9.7 0 17 3.3 23.5 9q1.3 1.2 0 2.5l-5.7 6.5q-1.2 1.3-2.4 0c-4.1-3.2-9.8-5.7-14.6-5.7-12.2 0-22 10.6-22 22.9zm115.4-32.7v64.7c0 0.8-0.8 1.6-1.6 1.6h-8.9c-0.8 0-1.7-0.8-1.7-1.6v-27.1h-30.8v27.1c0 0.8-0.8 1.6-1.7 1.6h-8.9c-0.8 0-1.6-0.8-1.6-1.6v-64.7c0-0.8 0.8-1.7 1.6-1.7h8.9c0.8 0 1.7 0.8 1.7 1.7v26.2h30.8v-26.2c0-0.8 0.9-1.7 1.7-1.7h8.9c0.8 0 1.6 0.9 1.6 1.7zm-114.6-54.9l-21.9-43.5h-11.4v41.8c0 1.7-1.6 3.3-3.2 3.3h-19.6c-1.6 0-3.2-1.6-3.2-3.3v-108.1h0.8c0-1.7 1.6-3.3 3.3-3.3h48.7c20.3 0 35.8 15.6 35.8 35.2 0 14.8-8.9 27.1-24.4 32.8l21.9 41.8c0.9 2.4 0 4.9-2.4 4.9h-21.9c-1.7 0-2.5-0.8-2.5-1.6zm3.3-77.1c0-7.3-5.7-12.3-12.2-12.3h-24.4v25.4h24.4c6.5 0 12.2-5.7 12.2-13.1zm673-32.7v18c0 1.6-1.6 3.3-3.2 3.3h-44.7v20.5h37.4c1.6 0 3.2 1.6 3.2 3.2v18.1c0 1.6-1.6 3.2-3.2 3.2h-37.4v22.2h44.7c1.6 0 3.2 1.6 3.2 3.2v18.1c0 1.6-1.6 3.2-3.2 3.2h-67.5c-1.6 0-3.3-1.6-3.3-3.2v-109.8c0-2.5 1.7-3.3 3.3-3.3h67.5c1.6 0 3.2 1.6 3.2 3.3zm-706.3 164.7v64.7c0 0.8-0.9 1.6-1.7 1.6h-8.9c-0.8 0-1.6-0.8-1.6-1.6v-64.7c0-0.8 0.8-1.7 1.6-1.7h8.9c0.8 0 1.7 0.9 1.7 1.7zm421.8 0v66.3c0 0.9-0.8 1.7-1.6 1.7h-0.8c-0.8 0-1.6 0-2.5-0.8l-39.8-44.3v42.6c0 0.8-0.8 1.7-1.6 1.7h-8.9c-0.9 0-1.7-0.9-1.7-1.7v-66.4c0-0.8 0.8-1.6 1.7-1.6h1.6c0.8 0 1.6 0 1.6 0.8l39.8 42.6v-40.9c0-0.8 0.8-1.7 1.7-1.7h8.9c0.8 0 1.6 0.9 1.6 1.7zm-134.9-84.4c0 19.6-16.3 31.9-35.8 31.9h-40.6c-1.6 0-3.3-1.6-3.3-3.3v-108.9c0-1.7 1.7-3.3 3.3-3.3h38.2c19.5 0 34.9 13.1 34.9 30.3 0.9 13.1-8.9 22.1-17.8 26.2 9.7 3.3 21.1 10.7 21.1 27.1zm-53.7-36.9h13.9c6.5 0 10.5-4.9 10.5-11.5 0-6.5-4-11.4-10.5-11.4h-13.9zm26.9 32.7c0-6.5-4.1-11.4-12.2-11.4h-13.8v23.7h13v-0.8c8.1 0 13-4.1 13-11.5zm1.6 127.9l13 24.5c0.8 1.7 0 2.5-1.6 2.5h-10.6c-0.8 0-1.6-0.8-1.6-0.8l-13-26.2h-9.8v25.4c0 0.8-0.8 1.6-1.6 1.6h-9c-0.8 0-1.6-0.8-1.6-1.6v-64.8c0-0.8 0.8-1.6 1.6-1.6h27.7c11.4 0 21.1 9.8 21.1 21.3 0 9-5.7 16.4-14.6 19.7zm0.8-25.4c-1.6-1.7-4.1-3.3-6.5-3.3h-17.1v19.6h15.5v-0.8c7.3 0 13-8.2 8.1-15.5zm345.5-130.3v50.8c0 1.6-0.8 2.4-1.6 2.4 0 0-17.1 10.7-40.7 10.7-32.5 0-58.5-26.2-58.5-59 0-32.8 27.6-58.2 59.3-58.2 13.8 0 28.5 5.7 39.9 15.6 1.6 0.8 1.6 3.3 0 4.1l-13.1 13.9c-1.6 0.8-3.2 0.8-4 0-6.5-5.7-13-8.2-21.2-8.2-17.8 0-32.5 15.6-31.7 33.6 0 18.8 16.3 32.8 34.2 32q6.1 0 12.2-2.5v-18h-10.6c-1.6 0-3.2-1.7-3.2-3.3v-13.9c0-1.7 1.6-3.3 3.2-3.3h32.5c1.7 0 3.3 1.6 3.3 3.3zm-399.9 116.3v8.2c0 0.8-0.9 1.7-1.7 1.7h-29.2v16.3h24.3c0.8 0 1.7 0.9 1.7 1.7v8.2c0 0.8-0.8 1.6-1.7 1.6h-24.3v18h29.2c0.8 0 1.7 0.9 1.7 1.7v8.2c0 0.8-0.9 1.6-1.7 1.6h-39.8c-0.8 0-1.6-0.8-1.6-1.6v-64.8c0-1.6 0.8-2.4 1.6-2.4h39.8c0.8 0 1.7 0.8 1.7 1.6zm287.7 32v28.7c0 0.8 0 0.8-0.8 1.6 0 0-9.8 6.5-24.4 6.5-19.5 0-34.9-15.5-34.9-35.2 0-19.6 16.2-36 35.7-36 9 0 17.1 3.2 23.6 9q1.2 1.2 0 2.4l-5.7 6.6q-1.2 1.2-2.4 0c-4.1-4.1-9.8-5.7-14.7-5.7-12.2 0-21.9 10.6-21.9 22.9 0 12.3 9.7 22.1 21.9 22.1 5.7 0 9.8-1.6 11.4-2.4v-12.3h-8.1c-0.8 0-1.7-0.8-1.7-1.7v-6.5c0-0.8 0.9-1.7 1.7-1.7h18.7c0.8 0 1.6 0.9 1.6 1.7zm-150.4-33.6c0.8 0 1.6 0.8 2.4 1.6v41c0 14.7-11.3 26.2-27.6 26.2-16.2 0-27.6-11.5-27.6-26.2v-41c0-0.8 0.8-1.6 1.6-1.6h8.9c0.9 0 1.7 0.8 1.7 1.6v41c0 8.2 4.9 14.7 14.6 14.7 9.7 0 14.6-6.5 14.6-14.7v-41c0-0.8 0.9-1.6 1.7-1.6 0 0 9.7 0 9.7 0zm-898.2 134.4c-102 0-184.5-83.2-184.5-186 0-102.9 82.5-186 184.5-186 102.1 0 184.5 83.1 184.5 186 0 102.8-82.4 186-184.5 186zm449.5-183.6c-29.2 0-47.9-20.5-47.9-45.1v-68.8c0-1.6 1.6-3.3 3.2-3.3h20.3c1.7 0 3.3 1.7 3.3 3.3v67.2c0 11.5 6.5 19.7 21.1 19.7 14.7 0 21.2-7.4 21.2-19.7v-67.2c0-1.6 1.6-3.3 3.2-3.3h19.5c1.6 0 3.3 0.9 4.1 3.3v68.8c0 25.5-18.7 45.1-48 45.1zm-284.5-2.4c0-92.6-73.9-167.2-165.8-167.2-91.8 0-165.8 74.6-165.8 167.2 0 30.3 8.9 59 22.7 83.5l143.1-0.8c0.8 0 0.8 0.8 1.6 0.8l44.7 36.1c0.9 0.8 0.9 0.8 1.7 0.8h67.4c31.7-30.3 51.2-72.9 50.4-120.4zm-232.4-100.8l25.1-34.4c0.9-0.9 1.7-0.9 1.7 0l25.2 34.4c0.8 0 0 1.6-0.8 1.6h-50.4c-0.8 0-1.7-0.8-0.8-1.6zm344.6 96.7v-109c-0.8-2.5 0.8-3.3 2.4-3.3h2.5c0.8 0 2.4 0.8 3.2 1.6l63.4 61.5v-58.2c0-1.6 1.7-3.3 3.3-3.3h19.5c1.6 0 3.2 1.7 3.2 3.3v109.8c0 1.7-1.6 3.3-3.2 3.3h-1.6c-1.7 0-2.5-0.8-3.3-1.6l-63.4-64.8v60.7c0 1.6-1.6 3.2-3.2 3.2h-19.6c-1.6 0-3.2-1.6-3.2-3.2zm585.3 2.4v-109.8c0-2.4 1.6-3.2 3.2-3.2h67.5c1.6 0 3.2 1.6 3.2 3.2v18.1c0 1.6-1.6 3.2-3.2 3.2h-44.7v20.5h37.4c1.6 0 3.2 1.7 3.2 3.3v18c0 1.7-1.6 3.3-3.2 3.3h-37.4v22.1h44.7c1.6 0 3.2 1.7 3.2 3.3v18c0 1.7-1.6 3.3-3.2 3.3h-67.5c-1.6 0-3.2-1.6-3.2-3.3zm-425.2-104.9v-13.9c0-1.6 1.7-3.3 3.3-3.3h16.2c1.7 0 3.3 1.7 3.3 3.3v13.9c0 2.5-1.6 3.3-3.3 3.3h-16.2c-1.6 0-3.3-1.6-3.3-3.3zm-337.3 136.1l-4.1 7.3v63.9c0 0 0 0.9-0.8 0.9h-41.4c-0.8 0-0.8-0.9-1.7-0.9l-29.2-22.9c-0.8 0-0.8-0.8-0.8-0.8v-40.2l-3.3-7.3c-0.8-0.8 0-1.7 0.8-1.7h79.7c0.8 0 0.8 0.8 0.8 1.7zm-91.9-56.6v8.2l-8.9 21.3v60.7c0 0 0 0.8-0.8 0.8h-80.5c0 0-0.8 0-0.8-0.8v-60.7l-8.9-21.3v-8.2c0 0 0-0.8 0.8-0.8h99.1c0 0 0.9 0 0 0.8zm-26-55.7l35 35.2c0 0.9-0.8 1.7-1.6 1.7h-114.7c-0.8 0-1.6-1.7-0.8-1.7l35-35.2zm117.9 92.6c0.8 0.8 0 1.6-0.9 1.6h-79.6c-0.8 0-0.8-0.8-0.8-1.6l5.7-18c0.8-0.9 2.4-0.9 2.4 0l7.3 17.2c0.8 0.8 2.5 0.8 2.5 0l21.1-50.8c0.8-0.9 2.4-0.9 2.4 0l21.2 50.8c0.8 0.8 2.4 0.8 2.4 0l6.5-17.2c0.8-0.9 2.4-0.9 2.4 0zm896.6-54.9h-11.4v41.8c0 1.6-1.6 3.2-3.2 3.2h-19.5c-1.6 0-3.3-1.6-3.3-3.2v-108.2h0.9c0-1.6 1.6-3.3 3.2-3.3h48.8c20.3 0 35.7 15.6 35.7 35.2 0 14.8-8.9 27.1-24.3 32.8l21.9 41.8c0.8 2.5 0 4.9-2.4 4.9h-22c-1.6 0-2.4-0.8-2.4-1.6 0 0-22-43.4-22-43.4zm-11.4-20.5h24.4c6.5 0 12.2-5.8 12.2-13.1 0-7.4-5.7-12.3-12.2-12.3h-24.4zm382.9 60.6c0.8 2.5 0 4.9-2.5 4.9h-21.9c-1.6 0-2.4-0.8-2.4-1.6l-22-43.4h-11.4v41.8c0 1.6-1.6 3.2-3.2 3.2h-19.5c-1.6 0-3.3-1.6-3.3-3.2v-108.2h0.9c0-1.6 1.6-3.3 3.2-3.3h48.8c20.3 0 35.7 15.6 35.7 35.2 0 14.8-8.9 27.1-24.3 32.8 0 0 21.9 41.8 21.9 41.8zm-23.6-73.7c0-7.4-5.7-12.3-12.2-12.3h-24.4v25.4h24.4c6.5 0 12.2-5.8 12.2-13.1zm-1004.7 132.7l-30 66.4c0 0.8-0.9 0.8-1.7 0.8h-0.8c-0.8 0-1.6-0.8-1.6-0.8l-30.1-66.4c-0.8-1.6 0-2.4 1.6-2.4h9.8c0.8 0 1.6 0.8 1.6 0.8l18.7 42.6h0.8l18.7-42.6c0-0.8 0.8-0.8 1.7-0.8h9.7c1.6 0 2.4 1.6 1.6 2.4zm57.7-0.8v8.2c0 0.8-0.8 1.6-1.6 1.6h-29.2v16.4h24.3c0.9 0 1.7 0.8 1.7 1.7v8.2c0 0.8-0.8 1.6-1.7 1.6h-24.3v18h29.2c0.8 0 1.6 0.8 1.6 1.6v8.2c0 0.9-0.8 1.7-1.6 1.7h-39.8c-0.8 0-1.6-0.8-1.6-1.7v-64.7c0-1.6 0.8-2.4 1.6-2.4h39.8c0.8 0 1.6 0.8 1.6 1.6zm52.9 39.3l13 24.6c0.8 1.6 0 2.5-1.6 2.5h-10.6c-0.8 0-1.6-0.9-1.6-0.9l-13-26.2h-10.6v25.4c0 0.9-0.8 1.7-1.6 1.7h-7.3c-0.9 0-1.7-0.9-1.7-1.7v-64.7h-0.8c0-0.8 0.8-1.6 1.6-1.6h27.7c11.4 0 21.1 9.8 21.1 21.3 0 9-5.7 16.4-14.6 19.6zm1.6-25.4c-1.6-1.6-4.1-3.3-6.5-3.3h-17.1v19.7h15.5v-0.8c7.3 0 13-8.2 8.1-15.6zm48 53.3c-9.8 0.8-16.3-4.1-19.5-6.6-0.9-0.8-1.7-1.6-0.9-3.3l3.3-5.7c0.8-1.6 2.4-1.6 3.2-0.8 4.1 3.3 8.2 5.7 14.7 5.7 4.9 0 8.9-3.3 8.9-7.4 0-4.9-4-8.1-12.2-11.4-8.9-4.1-18.7-9.8-18.7-21.3 0-9 6.5-18.9 22-18.9 9.7 0 17.9 5 19.5 6.6 0.8 0.8 1.6 2.5 0.8 3.3l-4.1 5.7c-0.8 0.8-2.4 1.6-3.2 0.8-4.1-2.4-8.1-5.7-13.8-5.7-5.7 0-9 3.3-9 6.5 0 5 3.3 7.4 11.4 10.7 9.8 4.1 20.3 9.8 20.3 22.1 0 9.8-8.9 19.7-22.7 19.7z"/>
</svg>
